#N canvas 533 169 682 425 10;
#X obj 9 174 print;
#X obj 95 230 soundfiler;
#N canvas 908 381 532 497 create_arrays 0;
#N canvas 745 633 583 657 sub-patch 0;
#X restore 87 395 pd sub-patch;
#X obj 87 350 s pd-sub-patch;
#X msg 87 297 obj 20 50 table array_99;
#X text 26 297 click me;
#X text 9 395 look inside;
#X msg 158 252 obj \$1 \$2 \$3 \$4;
#X obj 158 226 pack f f s s;
#X msg 204 97 symbol table;
#X obj 158 47 t b b b b;
#X text 252 140 use me to \; set position and \; array name;
#X obj 77 50 + 1;
#X obj 39 49 float;
#X obj 90 164 sel 0;
#X obj 82 138 % 5;
#X obj 90 187 float;
#X obj 129 187 + 50;
#X msg 82 20 1;
#X msg 285 32 0;
#X obj 276 221 makefilename sound_%d;
#X text 324 32 reset;
#X obj 40 96 t f f f;
#X obj 440 119 + 1;
#X obj 402 118 float;
#X obj 158 8 inlet;
#X obj 285 1 inlet;
#X obj 267 361 outlet;
#X msg 396 48 \; pd-sub-patch clear \;;
#X obj 390 20 t b b;
#X obj 41 185 * 80;
#X obj 355 360 outlet;
#X obj 407 184 t f f;
#X connect 2 0 1 0;
#X connect 5 0 1 0;
#X connect 6 0 5 0;
#X connect 7 0 6 2;
#X connect 8 0 11 0;
#X connect 8 2 7 0;
#X connect 8 3 22 0;
#X connect 10 0 11 1;
#X connect 11 0 10 0;
#X connect 11 0 20 0;
#X connect 12 0 14 0;
#X connect 12 0 16 0;
#X connect 13 0 12 0;
#X connect 14 0 6 1;
#X connect 14 0 15 0;
#X connect 15 0 14 1;
#X connect 16 0 11 1;
#X connect 17 0 14 1;
#X connect 17 0 11 1;
#X connect 17 0 22 1;
#X connect 18 0 6 3;
#X connect 18 0 25 0;
#X connect 20 0 28 0;
#X connect 20 1 13 0;
#X connect 21 0 22 1;
#X connect 22 0 21 0;
#X connect 22 0 30 0;
#X connect 23 0 8 0;
#X connect 24 0 27 0;
#X connect 27 0 17 0;
#X connect 27 1 26 0;
#X connect 28 0 6 0;
#X connect 30 0 29 0;
#X connect 30 1 18 0;
#X restore 171 148 pd create_arrays;
#X msg 95 203 read -resize \$1 \$2;
#X obj 95 176 pack s s;
#X obj 95 147 t s b;
#X obj 9 103 t s b b;
#X msg 344 221 clear;
#X obj 263 370 output~;
#X obj 262 335 tabplay~;
#X msg 526 225 bang;
#X floatatom 132 391 0 0 0 0 - - -;
#X obj 132 365 env~ 16384;
#X obj 140 301 list prepend set;
#X obj 141 323 list trim;
#X obj 264 250 coll;
#C restore;
#X obj 264 223 list trim;
#X obj 264 196 pack f s;
#X symbolatom 526 203 10 0 0 0 - - -, f 10;
#X floatatom 528 178 5 0 0 0 - - -, f 5;
#X text 526 158 here select the index;
#X text 562 224 ->> play!;
#X obj 9 127 folder_list;
#X obj 317 30 path;
#X obj 9 55 freesound;
#X obj 318 4 t b b;
#X obj 366 -2 bng 15 250 50 0 empty empty empty 17 7 0 10 -262144 -1
-1;
#X symbolatom 321 56 10 0 0 0 - - -, f 10;
#X obj 321 98 list prepend set_path;
#X text 418 17 I need cyclone \, tof and folder_list and unauthorized
;
#X msg 9 80 symbol ~/Development/DonkeyKong/patches/*.wav;
#X msg 9 28 query crow 2;
#X connect 2 0 4 1;
#X connect 2 0 17 1;
#X connect 2 1 17 0;
#X connect 3 0 1 0;
#X connect 4 0 3 0;
#X connect 5 0 4 0;
#X connect 5 1 2 0;
#X connect 6 0 22 0;
#X connect 6 1 2 1;
#X connect 6 2 7 0;
#X connect 7 0 15 0;
#X connect 9 0 8 0;
#X connect 9 0 12 0;
#X connect 9 0 8 1;
#X connect 10 0 9 0;
#X connect 12 0 11 0;
#X connect 13 0 14 0;
#X connect 14 0 9 0;
#X connect 15 0 18 0;
#X connect 15 0 13 0;
#X connect 16 0 15 0;
#X connect 17 0 16 0;
#X connect 19 0 15 0;
#X connect 22 0 0 0;
#X connect 22 0 5 0;
#X connect 23 0 27 0;
#X connect 24 0 30 0;
#X connect 25 0 31 0;
#X connect 25 1 23 0;
#X connect 26 0 25 0;
#X connect 27 0 28 0;
#X connect 28 0 24 2;
#X connect 30 0 6 0;
#X connect 31 0 24 0;
