#N canvas 339 54 689 323 10;
#X msg 96 120 detach 1;
#X msg 25 119 reload;
#X obj 69 231 bng 15 250 50 0 empty empty empty 17 7 0 10 -262144 -1
-1;
#X msg 159 20 query lemon 2;
#X msg 157 59 delete_files;
#X text 143 1 Query the keyword and ask for num of results;
#X obj 69 73 t l b;
#X obj 112 165 list trim;
#X obj 69 44 list;
#X obj 16 12 inlet;
#X obj 64 12 inlet;
#X obj 90 230 outlet;
#X obj 246 107 inlet;
#X obj 241 151 list trim;
#X obj 69 192 pyext fetch ex1;
#X connect 0 0 14 0;
#X connect 1 0 14 0;
#X connect 3 0 8 0;
#X connect 4 0 14 1;
#X connect 6 0 7 0;
#X connect 6 1 0 0;
#X connect 7 0 14 1;
#X connect 8 0 6 0;
#X connect 9 0 8 0;
#X connect 10 0 4 0;
#X connect 12 0 13 0;
#X connect 13 0 14 1;
#X connect 14 0 2 0;
#X connect 14 0 11 0;
