#N canvas 662 162 563 405 10;
#X obj 92 180 makenote;
#X obj 85 264 noteout;
#X floatatom 72 214 5 0 0 0 - - -;
#X floatatom 148 214 5 0 0 0 - - -;
#X obj 95 6 r recNote;
#X floatatom 109 101 5 0 0 0 - - -;
#X obj 85 57 unpack f f;
#X obj 21 13 bng 15 250 50 0 empty empty empty 17 7 0 10 -262144 -1
-1;
#X floatatom 22 81 5 0 0 0 - - -;
#X floatatom 232 80 5 0 0 0 - - -;
#X obj 307 138 send note;
#X obj 298 58 algomu/phaseDonald/melodygensimple;
#X obj 308 19 bng 15 250 50 0 empty empty empty 17 7 0 10 -262144 -1
-1;
#X text 156 0 empfangene Note per OSC (Ton \, duration);
#X text 325 73 neue Note generieren;
#X text 137 258 empfangene Note in Ableton abspielen;
#X connect 0 0 2 0;
#X connect 0 1 3 0;
#X connect 2 0 1 0;
#X connect 3 0 1 1;
#X connect 4 0 6 0;
#X connect 4 0 11 0;
#X connect 5 0 0 1;
#X connect 6 0 0 0;
#X connect 6 1 0 2;
#X connect 7 0 8 0;
#X connect 7 0 9 0;
#X connect 8 0 0 0;
#X connect 9 0 0 2;
#X connect 11 0 10 0;
#X connect 12 0 11 0;
