#N canvas 446 114 805 497 10;
#X obj 44 132 oscparse;
#X obj 44 104 netreceive -u -b 8888;
#X msg 112 50 listen 8888;
#X msg 114 74 listen 0;
#X obj 57 203 list trim;
#X obj 44 160 list split 1;
#X text 152 160 trim unity;
#X floatatom 151 429 5 0 0 0 - - -;
#X msg 52 326 disconnect;
#X obj -82 350 list prepend send;
#X obj -82 378 list trim;
#X obj 127 383 netsend -u -b;
#X obj -82 322 oscformat throw;
#X obj 322 287 print abspos;
#X obj 447 232 r note;
#X obj 441 288 list prepend send;
#X obj 441 316 list trim;
#X obj 441 260 oscformat note;
#X msg 138 312 connect 192.168.1.100 6666;
#X obj 602 260 unpack f f;
#X floatatom 597 297 5 0 0 0 - - -;
#X floatatom 666 298 5 0 0 0 - - -;
#X obj 66 235 route hit;
#X obj 91 261 send recNote;
#X obj -64 210 r eucBang;
#X obj -37 245 bng 15 250 50 0 empty empty empty 17 7 0 10 -262144
-1 -1;
#X text -85 275 Barrels per in euklidischen Rythmus werfen;
#X text 140 239 gespielte Note empfangen;
#X text 498 228 neue Note senden;
#X text 262 113 public static string hit= "/unity/hit" \;;
#X connect 0 0 5 0;
#X connect 1 0 0 0;
#X connect 2 0 1 0;
#X connect 3 0 1 0;
#X connect 4 0 22 0;
#X connect 5 1 4 0;
#X connect 8 0 11 0;
#X connect 9 0 10 0;
#X connect 10 0 11 0;
#X connect 11 0 7 0;
#X connect 12 0 9 0;
#X connect 14 0 17 0;
#X connect 14 0 19 0;
#X connect 15 0 16 0;
#X connect 16 0 11 0;
#X connect 17 0 15 0;
#X connect 18 0 11 0;
#X connect 19 0 20 0;
#X connect 19 1 21 0;
#X connect 22 0 23 0;
#X connect 24 0 12 0;
#X connect 24 0 25 0;
