#N canvas 748 201 773 618 10;
#X obj 44 132 oscparse;
#X obj 44 104 netreceive -u -b 8888;
#X msg 112 50 listen 8888;
#X msg 114 74 listen 0;
#X obj 57 203 list trim;
#X obj 44 160 list split 1;
#X text 152 160 trim unity;
#X text 280 131 public static string jumpCmd = "/unity/jump" \; public
static string enemyCollisionCmd = "/unity/enemyCollision" \; public
static string hammerTimeCmd = "/unity/hammerTime" \; public static
string movingCmd = "/unity/moving" \; public static string floorCmd
= "/unity/floor" \;;
#X floatatom 42 403 5 0 0 0 - - -, f 5;
#X msg 42 334 disconnect;
#X obj -82 350 list prepend send;
#X obj -82 378 list trim;
#X msg 124 353 connect 127.0.0.1 6666;
#X obj 42 377 netsend -u -b;
#X obj 107 288 s absposition;
#X obj -45 276 s dk_floor;
#X obj 26 275 s dk_jump;
#X obj -45 231 change;
#X obj 289 382 list prepend send;
#X obj 289 410 list trim;
#X obj 289 326 pack f 100;
#X floatatom 286 300 5 0 0 0 - - -, f 5;
#X obj 497 478 counter 60 72;
#X obj 502 423 tgl 15 0 empty empty empty 17 7 0 10 -262144 -1 -1 0
1;
#X obj 289 354 oscformat -f ff note;
#X obj 498 451 metro 1000;
#X obj 226 294 bng 15 250 50 0 empty empty empty 17 7 0 10 -262144
-1 -1;
#X obj 224 262 bng 15 250 50 0 empty empty empty 17 7 0 10 -262144
-1 -1;
#X obj 263 262 bng 15 250 50 0 empty empty empty 17 7 0 10 -262144
-1 -1;
#X obj -30 502 list prepend send;
#X obj -30 530 list trim;
#X obj -30 474 oscformat note0;
#X obj 152 505 list prepend send;
#X obj 152 533 list trim;
#X obj 152 477 oscformat note1;
#X obj 290 503 list prepend send;
#X obj 290 531 list trim;
#X obj 290 475 oscformat note2;
#X obj 66 235 route floor jump position hit0 hit1 hit2 beat;
#X obj 374 270 bng 15 250 50 0 empty empty empty 17 7 0 10 -262144
-1 -1;
#X msg -35 448 75 2;
#X msg 139 444 65 6;
#X msg 290 446 70 4;
#X obj 437 328 prepend set;
#X obj 518 330 prepend set;
#X obj 600 331 prepend set;
#X msg 436 352 0 0;
#X msg 517 354 0 0;
#X msg 599 355 0 0;
#X obj -82 322 oscformat;
#X msg -70 181 set throw;
#X obj -65 124 t b b;
#X obj -69 95 bng 15 250 50 0 empty empty empty 17 7 0 10 -262144 -1
-1;
#X obj -27 103 t b b;
#X msg -32 160 set beat;
#X obj -30 76 bng 15 250 50 0 empty empty empty 17 7 0 10 -262144 -1
-1;
#X connect 0 0 5 0;
#X connect 1 0 0 0;
#X connect 2 0 1 0;
#X connect 3 0 1 0;
#X connect 4 0 38 0;
#X connect 5 1 4 0;
#X connect 9 0 13 0;
#X connect 10 0 11 0;
#X connect 11 0 13 0;
#X connect 12 0 13 0;
#X connect 13 0 8 0;
#X connect 17 0 15 0;
#X connect 18 0 19 0;
#X connect 19 0 13 0;
#X connect 20 0 24 0;
#X connect 21 0 20 0;
#X connect 22 0 21 0;
#X connect 23 0 25 0;
#X connect 24 0 18 0;
#X connect 25 0 22 0;
#X connect 29 0 30 0;
#X connect 30 0 13 0;
#X connect 31 0 29 0;
#X connect 32 0 33 0;
#X connect 33 0 13 0;
#X connect 34 0 32 0;
#X connect 35 0 36 0;
#X connect 36 0 13 0;
#X connect 37 0 35 0;
#X connect 38 0 17 0;
#X connect 38 1 16 0;
#X connect 38 2 14 0;
#X connect 38 3 26 0;
#X connect 38 3 43 0;
#X connect 38 4 27 0;
#X connect 38 4 44 0;
#X connect 38 5 28 0;
#X connect 38 5 45 0;
#X connect 38 6 39 0;
#X connect 40 0 31 0;
#X connect 41 0 34 0;
#X connect 42 0 37 0;
#X connect 43 0 46 0;
#X connect 44 0 47 0;
#X connect 45 0 48 0;
#X connect 49 0 10 0;
#X connect 50 0 49 0;
#X connect 51 0 49 0;
#X connect 51 1 50 0;
#X connect 52 0 51 0;
#X connect 53 0 49 0;
#X connect 53 1 54 0;
#X connect 54 0 49 0;
#X connect 55 0 53 0;
