#N canvas 134 97 1102 580 10;
#N canvas 0 50 450 250 (subpatch) 0;
#X array mixer 3 float 3;
#A 0 0.885714 0.628572 1.14286;
#X coords 0 2 3 0 200 140 1 0 0;
#X restore 306 58 graph;
#N canvas 0 50 450 250 (subpatch) 0;
#X array hitsperbar 3 float 3;
#A 0 7.2 4.91429 8.57143;
#X coords 0 16 3 0 200 140 1 0 0;
#X restore 303 221 graph;
#N canvas 0 50 450 250 (subpatch) 0;
#X array offsets 3 float 3;
#A 0 0.457143 3.99999 10.8571;
#X coords 0 16 3 0 200 140 1 0 0;
#X restore 306 388 graph;
#N canvas 0 50 1280 647 kick 0;
#X obj 272 242 *~;
#X obj 257 450 dac~;
#X obj 382 291 tabread mixer;
#X obj 281 311 *~;
#X obj 263 147 osc~ 60;
#X obj 224 286 bob~;
#X floatatom 200 236 0 0 100000 0 - - -;
#X floatatom 232 244 0 0 100000 0 - - -;
#X msg 233 212 3;
#X msg 192 208 50;
#X obj 380 229 r clock;
#X msg 382 261 0;
#X obj 164 158 loadbang;
#X floatatom 505 359 0 0 120 0 - - -;
#X text 546 359 level \, dB;
#X floatatom 549 383 0 0 100 0 - - -;
#X text 590 383 liveness \, 0-100;
#X floatatom 593 409 0 0 120 0 - - -;
#X floatatom 637 433 0 0 120 0 - - -;
#X text 624 409 crossover frequency \, Hz.;
#X text 670 434 HF damping \, percent;
#X obj 464 504 dac~;
#X obj 462 464 rev2~ 60 90 3000 20;
#X obj 380 189 euclidtrigger~ 0;
#X connect 0 0 5 0;
#X connect 2 0 3 1;
#X connect 3 0 1 0;
#X connect 3 0 1 1;
#X connect 3 0 22 0;
#X connect 4 0 0 0;
#X connect 5 0 3 0;
#X connect 6 0 5 1;
#X connect 7 0 5 2;
#X connect 8 0 7 0;
#X connect 9 0 6 0;
#X connect 10 0 11 0;
#X connect 11 0 2 0;
#X connect 12 0 9 0;
#X connect 12 0 8 0;
#X connect 13 0 22 1;
#X connect 15 0 22 2;
#X connect 17 0 22 3;
#X connect 18 0 22 4;
#X connect 22 0 21 0;
#X connect 22 1 21 1;
#X connect 23 0 0 1;
#X restore 305 13 pd kick;
#N canvas 0 50 1280 647 snare 0;
#X obj 272 242 *~;
#X obj 257 450 dac~;
#X obj 382 291 tabread mixer;
#X obj 281 311 *~;
#X obj 380 229 r clock;
#X floatatom 505 359 0 0 120 0 - - -;
#X text 546 359 level \, dB;
#X floatatom 549 383 0 0 100 0 - - -;
#X text 590 383 liveness \, 0-100;
#X floatatom 593 409 0 0 10000 0 - - -;
#X floatatom 637 433 0 0 120 0 - - -;
#X text 624 409 crossover frequency \, Hz.;
#X text 670 434 HF damping \, percent;
#X obj 464 504 dac~;
#X obj 380 189 euclidtrigger~ 1;
#X obj 130 123 noise~ 100;
#X obj 211 186 bob~;
#X floatatom 218 145 0 0 100000 0 - - -;
#X floatatom 283 133 0 0 100000 0 - - -;
#X msg 283 106 3;
#X obj 144 19 loadbang;
#X msg 382 261 1;
#X msg 220 114 300;
#X obj 354 349 delwrite~ s 500;
#X obj 353 377 delread~ s 50;
#X obj 462 464 rev2~ 66 55 3000 120;
#X connect 0 0 3 0;
#X connect 2 0 3 1;
#X connect 3 0 1 0;
#X connect 3 0 1 1;
#X connect 3 0 23 0;
#X connect 4 0 21 0;
#X connect 5 0 25 1;
#X connect 7 0 25 2;
#X connect 9 0 25 3;
#X connect 10 0 25 4;
#X connect 14 0 0 1;
#X connect 15 0 16 0;
#X connect 16 0 0 0;
#X connect 17 0 16 1;
#X connect 18 0 16 2;
#X connect 19 0 18 0;
#X connect 20 0 22 0;
#X connect 20 0 19 0;
#X connect 21 0 2 0;
#X connect 22 0 17 0;
#X connect 24 0 25 0;
#X connect 25 0 13 0;
#X connect 25 1 13 1;
#X restore 380 13 pd snare;
#N canvas 541 175 1446 851 hat 0;
#X obj 272 242 *~;
#X obj 257 450 dac~;
#X obj 382 291 tabread mixer;
#X obj 281 311 *~;
#X obj 380 229 r clock;
#X floatatom 505 359 0 0 120 0 - - -;
#X text 546 359 level \, dB;
#X floatatom 549 383 0 0 100 0 - - -;
#X text 590 383 liveness \, 0-100;
#X floatatom 593 409 0 0 120 0 - - -;
#X floatatom 637 433 0 0 120 0 - - -;
#X text 624 409 crossover frequency \, Hz.;
#X text 670 434 HF damping \, percent;
#X obj 464 504 dac~;
#X obj 462 464 rev2~ 60 90 3000 20;
#X obj 236 133 phasor~ 6000;
#X msg 382 261 2;
#X obj 380 189 euclidtrigger~ 2;
#X obj 255 181 *~ 0.01;
#X connect 0 0 3 0;
#X connect 2 0 3 1;
#X connect 3 0 1 0;
#X connect 3 0 1 1;
#X connect 3 0 14 0;
#X connect 4 0 16 0;
#X connect 5 0 14 1;
#X connect 7 0 14 2;
#X connect 9 0 14 3;
#X connect 10 0 14 4;
#X connect 14 0 13 0;
#X connect 14 1 13 1;
#X connect 15 0 18 0;
#X connect 16 0 2 0;
#X connect 17 0 0 1;
#X connect 18 0 0 0;
#X restore 461 13 pd hat;
#N canvas 681 142 1331 454 clock 0;
#X obj 366 207 metro 100;
#X obj 354 173 tgl 15 0 empty empty empty 17 7 0 10 -262144 -1 -1 1
1;
#X obj 366 243 f;
#X obj 395 241 + 1;
#X obj 406 -69 loadbang;
#X floatatom 406 9 5 0 0 0 - - -, f 5;
#X floatatom 407 56 5 0 0 0 - - -, f 5;
#X obj 406 31 expr $f1/60;
#X text 461 58 hz;
#X text 453 6 bpm;
#X floatatom 408 104 5 0 0 0 - - -, f 5;
#X obj 407 80 expr 1000/$f1;
#X text 456 103 T[ms] 4ths;
#X floatatom 407 160 5 0 0 0 - - -, f 5;
#X text 453 158 T[ms] 16ths;
#X obj 406 130 expr $f1*0.25;
#X obj 304 227 s clock;
#X obj 367 270 s counter;
#X msg 406 -29 100;
#X obj 253 -34 inlet;
#X obj 294 113 inlet;
#X obj 609 30 outlet;
#X connect 0 0 2 0;
#X connect 0 0 16 0;
#X connect 1 0 0 0;
#X connect 2 0 3 0;
#X connect 2 0 17 0;
#X connect 3 0 2 1;
#X connect 4 0 18 0;
#X connect 5 0 7 0;
#X connect 5 0 21 0;
#X connect 6 0 11 0;
#X connect 7 0 6 0;
#X connect 10 0 15 0;
#X connect 11 0 10 0;
#X connect 13 0 0 1;
#X connect 15 0 13 0;
#X connect 18 0 5 0;
#X connect 19 0 5 0;
#X connect 20 0 1 0;
#X restore 75 138 pd clock;
#X obj 78 84 hsl 128 15 30 300 0 0 empty bpm empty -2 -8 0 10 -262144
-1 -1 2916 1;
#X obj 151 118 tgl 15 0 empty empty empty 17 7 0 10 -262144 -1 -1 1
1;
#X floatatom 75 111 5 0 0 0 - - -, f 5;
#X text 42 111 bpm;
#X text 177 117 <- start here;
#N canvas 405 228 566 349 init 0;
#X floatatom 119 105 5 0 0 0 - - -, f 5;
#X obj 119 58 loadbang;
#X msg 119 82 16;
#X obj 119 129 s beatsperbar;
#X msg 57 92 92;
#X obj 58 122 s bpm;
#X msg 288 97 \; pd dsp 1;
#X connect 0 0 3 0;
#X connect 1 0 2 0;
#X connect 1 0 4 0;
#X connect 1 0 6 0;
#X connect 2 0 0 0;
#X connect 4 0 5 0;
#X restore 694 50 pd init;
#X obj 61 274 hsl 128 15 1 64 0 0 empty empty empty -2 -8 0 10 -262144
-1 -1 0 1;
#X floatatom 63 336 5 0 0 0 - - beatsperbar, f 5;
#X text 50 251 beatsperbar;
#X obj 62 304 int;
#N canvas 0 50 450 250 (subpatch) 0;
#X array attacks 3 float 3;
#A 0 114.286 350 57.143;
#X coords 0 500 3 0 200 140 1 0 0;
#X restore 548 223 graph;
#N canvas 0 50 450 250 (subpatch) 0;
#X array decays 3 float 3;
#A 0 292.857 210.714 96.4286;
#X coords 0 500 3 0 200 140 1 0 0;
#X restore 551 394 graph;
#X connect 7 0 9 0;
#X connect 8 0 6 1;
#X connect 9 0 6 0;
#X connect 13 0 16 0;
#X connect 16 0 14 0;
