#N canvas 8 50 905 677 10;
#X obj 70 256 euclid;
#X obj 214 270 tgl 15 0 empty empty empty 17 7 0 10 -262144 -1 -1 0
1;
#X floatatom 81 220 5 0 0 0 - - -, f 5;
#X floatatom 126 221 5 0 0 0 - - -, f 5;
#X obj 519 337 delay 1;
#X obj 206 112 tabread hitsperbar;
#X obj 201 135 int;
#X obj 386 131 int;
#X obj 387 111 tabread offsets;
#X obj 157 26 r clock;
#X obj 176 223 r beatsperbar;
#X obj 279 51 f \$1;
#X floatatom 278 74 5 0 0 0 - - -, f 5;
#X msg 279 27 bang;
#X obj -2 212 r counter;
#X obj 234 630 outlet~;
#X obj 594 341 tabread decays;
#X msg 521 396 0 \$1;
#X obj 515 371 f;
#X obj 224 396 f;
#X obj 265 355 tabread attacks;
#X obj 407 383 tabread mixer;
#X obj 259 588 *~;
#X obj 379 452 inlet;
#X obj 319 559 sig~;
#X floatatom 460 479 5 0 0 0 - - -, f 5;
#X floatatom 389 577 5 0 0 0 - - -, f 5;
#X msg 405 537 0;
#X obj 377 490 moses 1;
#X msg 210 369 bang;
#X text 460 552 return volume if turned off so the trigger has no effect
;
#X floatatom 455 443 5 0 0 0 - - -, f 5;
#X obj 281 494 *~;
#X msg 225 421 1 \$1;
#X msg 355 530 0.1;
#X obj 292 456 vline~;
#X connect 0 0 1 0;
#X connect 1 0 4 0;
#X connect 1 0 29 0;
#X connect 2 0 0 1;
#X connect 3 0 0 2;
#X connect 4 0 18 0;
#X connect 5 0 6 0;
#X connect 6 0 2 0;
#X connect 7 0 3 0;
#X connect 8 0 7 0;
#X connect 9 0 13 0;
#X connect 10 0 0 3;
#X connect 11 0 12 0;
#X connect 12 0 8 0;
#X connect 12 0 5 0;
#X connect 12 0 16 0;
#X connect 12 0 21 0;
#X connect 12 0 20 0;
#X connect 13 0 11 0;
#X connect 14 0 0 0;
#X connect 16 0 18 1;
#X connect 17 0 35 0;
#X connect 18 0 17 0;
#X connect 19 0 33 0;
#X connect 20 0 19 1;
#X connect 21 0 31 0;
#X connect 21 0 22 1;
#X connect 22 0 15 0;
#X connect 23 0 25 0;
#X connect 23 0 28 0;
#X connect 23 0 32 1;
#X connect 24 0 22 0;
#X connect 27 0 24 0;
#X connect 27 0 26 0;
#X connect 28 0 34 0;
#X connect 28 1 27 0;
#X connect 29 0 19 0;
#X connect 32 0 22 0;
#X connect 33 0 35 0;
#X connect 34 0 26 0;
#X connect 34 0 24 0;
#X connect 35 0 32 0;
