#N canvas 1110 101 1252 763 10;
#X obj 178 254 euclid;
#X obj 185 324 tgl 15 0 empty empty empty 17 7 0 10 -262144 -1 -1 0
1;
#X floatatom 212 209 5 0 0 0 - - -, f 5;
#X floatatom 279 205 5 0 0 0 - - -, f 5;
#X obj 220 493 *~;
#X obj 322 412 vline~;
#X obj 199 662 dac~;
#X obj 295 525 tabread mixer;
#X obj 260 547 *~;
#X obj 317 328 delay 1;
#X msg 318 380 1 1;
#X msg 372 387 0 15;
#X obj 206 112 tabread hitsperbar;
#X obj 201 135 int;
#X obj 386 131 int;
#X obj 387 111 tabread offsets;
#X obj 157 26 r clock;
#X floatatom 484 550 0 0 120 0 - - -;
#X text 525 550 level \, dB;
#X floatatom 528 574 0 0 100 0 - - -;
#X text 569 574 liveness \, 0-100;
#X floatatom 572 600 0 0 120 0 - - -;
#X floatatom 616 624 0 0 120 0 - - -;
#X text 603 600 crossover frequency \, Hz.;
#X obj 443 695 dac~;
#X obj 441 655 rev2~ 76 90 3000 20;
#X obj 32 369 inlet~;
#X obj 481 503 inlet;
#X obj 399 206 r beatsperbar;
#X obj 279 51 f \$1;
#X floatatom 278 74 5 0 0 0 - - -, f 5;
#X msg 279 27 bang;
#X obj 94 162 r counter;
#X connect 0 0 1 0;
#X connect 1 0 10 0;
#X connect 1 0 9 0;
#X connect 2 0 0 1;
#X connect 3 0 0 2;
#X connect 4 0 8 0;
#X connect 5 0 4 1;
#X connect 7 0 8 1;
#X connect 8 0 6 1;
#X connect 8 0 6 0;
#X connect 8 0 25 0;
#X connect 9 0 11 0;
#X connect 10 0 5 0;
#X connect 11 0 5 0;
#X connect 12 0 13 0;
#X connect 13 0 2 0;
#X connect 14 0 3 0;
#X connect 15 0 14 0;
#X connect 16 0 31 0;
#X connect 17 0 25 1;
#X connect 19 0 25 2;
#X connect 21 0 25 3;
#X connect 22 0 25 4;
#X connect 25 0 24 0;
#X connect 25 1 24 1;
#X connect 26 0 4 0;
#X connect 27 0 17 0;
#X connect 28 0 0 3;
#X connect 29 0 30 0;
#X connect 30 0 15 0;
#X connect 30 0 12 0;
#X connect 30 0 7 0;
#X connect 31 0 29 0;
#X connect 32 0 0 0;
