#N canvas 988 574 584 426 10;
#X obj 143 158 spigot;
#X floatatom 144 181 5 0 0 0 - - -, f 5;
#X msg 137 134 1;
#X msg 170 135 0;
#X obj 72 53 inlet;
#X obj 195 59 inlet;
#X obj 139 110 sel \$1;
#X obj 141 218 osc~;
#X obj 238 223 line~;
#X msg 235 200 \$1 20;
#X obj 140 257 *~;
#X obj 132 301 outlet~;
#X obj 277 87 inlet;
#X connect 0 0 1 0;
#X connect 1 0 7 0;
#X connect 2 0 0 1;
#X connect 3 0 0 1;
#X connect 4 0 0 0;
#X connect 5 0 6 0;
#X connect 6 0 2 0;
#X connect 6 1 3 0;
#X connect 7 0 10 0;
#X connect 8 0 10 1;
#X connect 9 0 8 0;
#X connect 10 0 11 0;
#X connect 12 0 9 0;
