#N canvas 988 574 450 300 10;
#X obj 143 158 spigot;
#X floatatom 144 181 5 0 0 0 - - -, f 5;
#X msg 137 134 1;
#X msg 170 135 0;
#X obj 72 53 inlet;
#X obj 195 59 inlet;
#X obj 139 110 sel \$1;
#X obj 148 222 outlet;
#X connect 0 0 1 0;
#X connect 1 0 7 0;
#X connect 2 0 0 1;
#X connect 3 0 0 1;
#X connect 4 0 0 0;
#X connect 5 0 6 0;
#X connect 6 0 2 0;
#X connect 6 1 3 0;
