#N canvas 783 50 568 670 10;
#X obj 94 495 outlet;
#X floatatom 56 428 0 0 0 0 - - -;
#X floatatom 184 382 0 0 0 0 - - -;
#X text 93 330 root note;
#X floatatom 82 195 0 0 0 0 - - -;
#X msg 43 82 bang;
#X obj 82 170 + 1;
#X obj 43 107 float;
#X obj 111 140 mod 5;
#X obj 116 100 r melodysize;
#X obj 133 460 pack f f;
#X obj 247 321 * 100;
#X obj 52 36 inlet;
#X obj 168 321 metro 5000;
#X obj 205 201 loadbang;
#X obj 97 367 random 12;
#N canvas 0 50 450 250 (subpatch) 0;
#X array \$0scaletable 6 float 3;
#A 0 0 7.71429 3.34286 -1.54286 7 10;
#X coords 0 12 6 0 200 140 1 0 0;
#X restore 366 105 graph;
#X msg 381 293 \; scalesize 5 \; scaletable resize 5 \; scaletable
0 0 2 5 7 9;
#X text 573 320 pentatonic;
#X text 603 473 blues;
#X msg 376 449 \; scalesize 6 \; scaletable resize 6 \; scaletable
0 0 3 5 6 7 10;
#N canvas 0 50 450 250 (subpatch) 0;
#X array \$0melodytable 27 float 3;
#A 0 1.60714 3.39286 4.03572 3.82143 0.250001 0.607144 1 1.5 2 2.46429
2.82143 3.14286 2.17857 2.35714 2.89286 3.17857 3.53572 3.53572 1.89286
2.21429 2.46429 2.82143 2.78572 2.17857 2 1.78572 1.67857;
#X coords 0 5 27 0 200 140 1 0 0;
#X restore 639 125 graph;
#X msg 375 375 \; scalesize 7 \; scaletable resize 7 \; scaletable
0 0 2 3 5 7 9 11;
#X msg 736 38 \; melodysize \$1 \; melodytable resize \$1 \;;
#X floatatom 734 6 5 0 0 0 - - -, f 5;
#X text 630 399 aeolian;
#N canvas 0 50 450 250 (subpatch) 0;
#X array \$0durationtable 5 float 3;
#A 0 5.48571 8.31429 5.14286 3 3.17143;
#X coords 0 12 5 0 200 140 1 0 0;
#X restore 871 128 graph;
#X obj 29 234 tabread \$0melodytable;
#X obj 27 261 tabread \$0scaletable;
#X obj 225 266 tabread \$0durationtable;
#X obj 336 10 r pitch;
#X floatatom 250 84 5 0 0 0 - - -, f 5;
#X obj 44 333 + 10;
#X obj 44 392 - 12;
#X connect 1 0 10 0;
#X connect 2 0 10 1;
#X connect 4 0 27 0;
#X connect 5 0 7 0;
#X connect 5 0 31 0;
#X connect 6 0 4 0;
#X connect 6 0 8 0;
#X connect 7 0 6 0;
#X connect 8 0 7 1;
#X connect 9 0 8 1;
#X connect 10 0 0 0;
#X connect 11 0 2 0;
#X connect 12 0 5 0;
#X connect 13 0 15 0;
#X connect 14 0 13 0;
#X connect 24 0 23 0;
#X connect 27 0 28 0;
#X connect 27 0 29 0;
#X connect 28 0 32 0;
#X connect 29 0 11 0;
#X connect 30 0 31 0;
#X connect 31 0 32 1;
#X connect 32 0 33 0;
#X connect 33 0 1 0;
