#N canvas 89 50 1218 670 10;
#X obj 92 180 makenote;
#X floatatom 72 214 5 0 0 0 - - -, f 5;
#X floatatom 148 214 5 0 0 0 - - -, f 5;
#X obj 85 57 unpack f f;
#X obj 21 13 bng 15 250 50 0 empty empty empty 17 7 0 10 -262144 -1
-1;
#X obj 308 19 bng 15 250 50 0 empty empty empty 17 7 0 10 -262144 -1
-1;
#X text 156 0 empfangene Note per OSC (Ton \, duration);
#X text 325 73 neue Note generieren;
#X text 137 258 empfangene Note in Ableton abspielen;
#X obj 96 83 loadbang;
#X msg 107 134 128;
#X obj 95 6 r recNote0;
#X obj 85 264 noteout 1;
#X obj 911 183 makenote;
#X floatatom 891 232 5 0 0 0 - - -, f 5;
#X floatatom 967 217 5 0 0 0 - - -, f 5;
#X obj 904 60 unpack f f;
#X obj 841 16 bng 15 250 50 0 empty empty empty 17 7 0 10 -262144 -1
-1;
#X obj 1127 22 bng 15 250 50 0 empty empty empty 17 7 0 10 -262144
-1 -1;
#X text 975 3 empfangene Note per OSC (Ton \, duration);
#X text 1144 76 neue Note generieren;
#X text 956 261 empfangene Note in Ableton abspielen;
#X obj 915 86 loadbang;
#X msg 926 137 128;
#X obj 914 9 r recNote1;
#X obj 885 310 noteout 2;
#X msg 838 98 70;
#X msg 1015 128 50;
#X obj 1126 141 send note1;
#X obj 449 515 makenote;
#X floatatom 429 549 5 0 0 0 - - -, f 5;
#X floatatom 505 549 5 0 0 0 - - -, f 5;
#X obj 442 392 unpack f f;
#X obj 378 348 bng 15 250 50 0 empty empty empty 17 7 0 10 -262144
-1 -1;
#X obj 665 354 bng 15 250 50 0 empty empty empty 17 7 0 10 -262144
-1 -1;
#X text 513 335 empfangene Note per OSC (Ton \, duration);
#X text 682 408 neue Note generieren;
#X text 494 593 empfangene Note in Ableton abspielen;
#X obj 453 418 loadbang;
#X obj 452 341 r recNote2;
#X obj 442 599 noteout 3;
#X obj 664 472 send note2;
#X msg 464 469 600;
#X text 617 530 Brushed Bell: bis 60 nur klicken;
#X msg 369 435 50;
#X msg 559 463 200;
#X obj 312 207 send note0;
#X obj 1060 78 bng 15 250 50 0 empty empty empty 17 7 0 10 -262144
-1 -1;
#X obj 189 54 bng 15 250 50 0 empty empty empty 17 7 0 10 -262144 -1
-1;
#X msg 32 99 70;
#X msg 187 102 200;
#X obj 364 45 melodyGen;
#X obj 1117 61 melodyGen;
#X obj 655 393 melodyGen;
#X connect 0 0 1 0;
#X connect 0 1 2 0;
#X connect 1 0 12 0;
#X connect 2 0 12 1;
#X connect 3 0 0 0;
#X connect 3 1 0 2;
#X connect 4 0 49 0;
#X connect 4 0 50 0;
#X connect 5 0 51 0;
#X connect 9 0 10 0;
#X connect 10 0 0 1;
#X connect 11 0 3 0;
#X connect 11 0 48 0;
#X connect 11 0 51 0;
#X connect 13 0 14 0;
#X connect 13 1 15 0;
#X connect 14 0 25 0;
#X connect 15 0 25 1;
#X connect 16 0 13 0;
#X connect 16 1 13 2;
#X connect 17 0 26 0;
#X connect 17 0 27 0;
#X connect 18 0 52 0;
#X connect 22 0 23 0;
#X connect 23 0 13 1;
#X connect 24 0 16 0;
#X connect 24 0 47 0;
#X connect 24 0 52 0;
#X connect 26 0 14 0;
#X connect 27 0 15 0;
#X connect 29 0 30 0;
#X connect 29 1 31 0;
#X connect 30 0 40 0;
#X connect 31 0 40 1;
#X connect 32 0 29 0;
#X connect 32 1 29 2;
#X connect 33 0 44 0;
#X connect 33 0 45 0;
#X connect 34 0 53 0;
#X connect 38 0 42 0;
#X connect 39 0 32 0;
#X connect 39 0 53 0;
#X connect 42 0 29 1;
#X connect 44 0 30 0;
#X connect 45 0 31 0;
#X connect 49 0 1 0;
#X connect 50 0 2 0;
#X connect 51 0 46 0;
#X connect 52 0 28 0;
#X connect 53 0 41 0;
