#N canvas 47 161 1316 511 10;
#X obj 44 132 oscparse;
#X msg 114 74 listen 0;
#X obj 50 190 list trim;
#X obj 44 160 list split 1;
#X text 152 160 trim unity;
#X floatatom 151 429 5 0 0 0 - - -, f 5;
#X msg 52 326 disconnect;
#X obj -82 350 list prepend send;
#X obj -82 378 list trim;
#X obj 127 383 netsend -u -b;
#X obj 506 251 list prepend send;
#X obj 506 279 list trim;
#X obj -64 210 r eucBang;
#X obj -37 245 bng 15 250 50 0 empty empty empty 17 7 0 10 -262144
-1 -1;
#X text -85 275 Barrels per in euklidischen Rythmus werfen;
#X text 140 239 gespielte Note empfangen;
#X text 563 191 neue Note senden;
#X text 262 113 public static string hit= "/unity/hit" \;;
#X obj 325 235 send recBeat;
#X obj 106 258 send recNote0;
#X obj 230 275 send recNote1;
#X obj 301 256 send recNote2;
#X obj 512 195 r note0;
#X obj 606 347 list prepend send;
#X obj 606 375 list trim;
#X text 663 287 neue Note senden;
#X obj 612 291 r note1;
#X obj 696 440 list prepend send;
#X obj 696 468 list trim;
#X text 753 380 neue Note senden;
#X obj 702 384 r note2;
#X obj 470 231 bng 15 250 50 0 empty empty empty 17 7 0 10 -262144
-1 -1;
#X obj 669 417 bng 15 250 50 0 empty empty empty 17 7 0 10 -262144
-1 -1;
#X obj 577 329 bng 15 250 50 0 empty empty empty 17 7 0 10 -262144
-1 -1;
#X obj 420 171 send pitch;
#X obj 371 199 bng 15 250 50 0 empty empty empty 17 7 0 10 -262144
-1 -1;
#X obj 47 106 netreceive -u -b;
#X obj -82 322 oscformat throw;
#X msg 121 469 connect 192.168.42.42 8888;
#X msg 124 313 connect 255.255.255.255 8888;
#X msg 112 50 listen 6666;
#X obj 506 223 oscformat note;
#X obj 606 319 oscformat note1;
#X obj 696 412 oscformat note2;
#X obj 172 130 route hit0 hit1 hit2 note beat /dk/pitch;
#X connect 0 0 3 0;
#X connect 1 0 36 0;
#X connect 2 0 44 0;
#X connect 3 1 2 0;
#X connect 6 0 9 0;
#X connect 7 0 8 0;
#X connect 8 0 9 0;
#X connect 9 0 5 0;
#X connect 10 0 11 0;
#X connect 11 0 9 0;
#X connect 12 0 13 0;
#X connect 12 0 37 0;
#X connect 22 0 31 0;
#X connect 22 0 41 0;
#X connect 23 0 24 0;
#X connect 24 0 9 0;
#X connect 26 0 33 0;
#X connect 26 0 42 0;
#X connect 27 0 28 0;
#X connect 28 0 9 0;
#X connect 30 0 32 0;
#X connect 30 0 43 0;
#X connect 36 0 0 0;
#X connect 37 0 7 0;
#X connect 39 0 9 0;
#X connect 40 0 36 0;
#X connect 41 0 10 0;
#X connect 42 0 23 0;
#X connect 43 0 27 0;
#X connect 44 0 19 0;
#X connect 44 1 20 0;
#X connect 44 2 21 0;
#X connect 44 3 18 0;
#X connect 44 5 34 0;
#X connect 44 5 35 0;
