#N canvas 598 40 1098 838 10;
#X obj 770 300 s squelch;
#X floatatom 283 288 7 0 0 0 - donaldpos -, f 7;
#N canvas 0 110 565 454 hann-window 0;
#N canvas 0 50 450 300 (subpatch) 0;
#X array \$0-hann1 2048 float 0;
#X coords 0 1 2047 0 300 100 1;
#X restore 82 311 graph;
#X obj 378 165 osc~;
#X obj 378 190 *~ -0.5;
#X obj 378 214 +~ 0.5;
#X obj 37 88 r window-size;
#X obj 38 173 /;
#X obj 127 142 samplerate~;
#X obj 38 251 s window-sec;
#X obj 177 204 swap;
#X obj 177 228 /;
#X obj 177 252 s window-hz;
#X obj 49 201 * 1000;
#X obj 49 228 s window-msec;
#X obj 38 115 t f b f;
#X msg 173 92 resize \$1;
#X obj 330 105 r window-hz;
#X msg 382 130 0;
#X obj 330 131 t f b;
#X text 15 8 calculate Hann window table (variable window size) and
constants window-hz (fundamental frequency of analysis) \, window-sec
and window-msec (analysis window size in seconds and msec).;
#X obj 173 116 s \$0-hann1;
#X obj 331 247 tabwrite~ \$0-hann1;
#X connect 1 0 2 0;
#X connect 2 0 3 0;
#X connect 3 0 20 0;
#X connect 4 0 13 0;
#X connect 5 0 7 0;
#X connect 5 0 11 0;
#X connect 6 0 5 1;
#X connect 6 0 8 1;
#X connect 8 0 9 0;
#X connect 8 1 9 1;
#X connect 9 0 10 0;
#X connect 11 0 12 0;
#X connect 13 0 5 0;
#X connect 13 0 8 0;
#X connect 13 1 6 0;
#X connect 13 2 14 0;
#X connect 14 0 19 0;
#X connect 15 0 17 0;
#X connect 16 0 1 1;
#X connect 17 0 1 0;
#X connect 17 1 16 0;
#X connect 17 1 20 0;
#X restore 853 447 pd hann-window;
#N canvas 529 264 754 573 donald 0;
#N canvas 147 50 795 647 fft-analysis 0;
#X obj 94 511 *~;
#X obj 55 511 *~;
#X obj 413 356 *~;
#X obj 372 356 *~;
#X obj 372 379 +~;
#X obj 54 183 *~;
#X obj 54 158 inlet~;
#X obj 54 206 rfft~;
#X obj 54 560 *~;
#X obj 141 245 *~;
#X obj 372 333 rfft~;
#X obj 54 535 rifft~;
#X obj 54 583 outlet~;
#X obj 107 245 *~;
#X obj 107 268 +~;
#X text 458 408 modulus;
#X obj 107 420 *~;
#X obj 600 13 block~ 1024 4;
#X obj 107 398 clip~;
#X obj 599 53 loadbang;
#X obj 148 346 r squelch;
#X obj 147 369 expr 0.01*$f1*$f1;
#X obj 107 294 +~ 1e-20;
#X obj 108 480 *~ 0.00065;
#X obj 373 307 *~;
#X obj 373 282 inlet~;
#X obj 107 321 q8_rsqrt~;
#X obj 372 402 q8_sqrt~;
#X text 458 425 of control;
#X text 456 442 amplitude;
#X text 196 248 reciprocal;
#X text 199 267 modulus of;
#X text 195 287 filter input;
#X text 196 306 amplitude;
#X msg 599 76 \; pd dsp 1 \; window-size 1024 \; squelch 30 \; squelch-set
set 30;
#X text 115 159 filter input;
#X text 438 282 control source;
#X text 434 332 Fourier transform;
#X text 28 17 Internal workings of the timbre stamping algorithm. First
the "filter input" is treated as in the compressor patch \, multiplying
each channel amplitude by one over its modulus (but limited by the
"squelch" parameter.) It is then multiplied by the modulus of the channel
amplitude for the control source (which is Fourier analyzed in parallel
with the filter input.);
#X text 145 422 multiply the two amplitude;
#X text 143 439 factors (for compression;
#X text 145 455 and to apply new timbre);
#X obj 406 308 tabreceive~ \$0-hann1;
#X obj 87 560 tabreceive~ \$0-hann1;
#X obj 87 184 tabreceive~ \$0-hann1;
#X connect 0 0 11 1;
#X connect 1 0 11 0;
#X connect 2 0 4 1;
#X connect 3 0 4 0;
#X connect 4 0 27 0;
#X connect 5 0 7 0;
#X connect 6 0 5 0;
#X connect 7 0 13 0;
#X connect 7 0 13 1;
#X connect 7 0 1 0;
#X connect 7 1 9 0;
#X connect 7 1 9 1;
#X connect 7 1 0 0;
#X connect 8 0 12 0;
#X connect 9 0 14 1;
#X connect 10 0 3 0;
#X connect 10 0 3 1;
#X connect 10 1 2 0;
#X connect 10 1 2 1;
#X connect 11 0 8 0;
#X connect 13 0 14 0;
#X connect 14 0 22 0;
#X connect 16 0 23 0;
#X connect 18 0 16 0;
#X connect 19 0 34 0;
#X connect 20 0 21 0;
#X connect 21 0 18 2;
#X connect 22 0 26 0;
#X connect 23 0 0 1;
#X connect 23 0 1 1;
#X connect 24 0 10 0;
#X connect 25 0 24 0;
#X connect 26 0 18 0;
#X connect 27 0 16 1;
#X connect 42 0 24 1;
#X connect 43 0 8 1;
#X connect 44 0 5 1;
#X restore 195 477 pd fft-analysis;
#X obj 282 236 vocsim;
#X msg 320 136 debate_cut2.wav;
#N canvas 190 50 661 593 choir1 0;
#X obj 90 444 line~;
#X obj 90 369 f;
#X obj 90 524 outlet~;
#X msg 90 423 0 \, \$1 \$2;
#X obj 90 397 pack 0 0;
#X obj 190 344 /;
#X obj 249 325 * 0.001;
#X obj 90 497 hip~ 5;
#X obj 35 246 loadbang;
#X msg 90 322 1;
#X obj 90 344 metro 1000;
#X obj 191 302 t b b f;
#X obj 117 270 t b f;
#X obj 90 469 tabread4~ \$0-sample;
#X text 21 28 test signal: looped sample playback;
#X obj 51 159 hip~ 5;
#X obj 51 135 adc~ 1;
#X obj 113 159 s insamprate;
#X obj 40 99 inlet;
#X obj 113 135 samplerate~;
#X obj 116 246 r \$0-samplength;
#X obj 191 276 r \$0-insamprate;
#X obj 40 182 tabwrite~ \$0-sample;
#X floatatom 465 93 15 0 0 0 - #0-samp-msec -, f 15;
#N canvas 388 86 722 350 insample1 0;
#N canvas 0 50 450 300 (subpatch) 0;
#X array \$0-sample 4e+06 float 0;
#X coords 0 1 4e+06 -1 400 150 1;
#X restore 259 24 graph;
#X obj 19 74 unpack s f;
#X obj 19 184 soundfiler;
#X obj 19 100 t s b;
#X obj 75 99 symbol \$0-sample;
#X obj 19 135 pack s s;
#X msg 19 160 read -resize \$1 \$2;
#X obj 74 46 44100;
#X obj 19 47 t a b;
#X obj 29 208 s \$0-samplength;
#X obj 116 74 s \$0-insamprate;
#X obj 19 247 /;
#X obj 19 271 * 1000;
#X obj 19 294 s \$0-samp-msec;
#X obj 57 247 r \$0-insamprate;
#X obj 19 23 r read-sound1;
#X connect 1 0 3 0;
#X connect 1 1 10 0;
#X connect 2 0 9 0;
#X connect 2 0 11 0;
#X connect 3 0 5 0;
#X connect 3 1 4 0;
#X connect 4 0 5 1;
#X connect 5 0 6 0;
#X connect 6 0 2 0;
#X connect 7 0 10 0;
#X connect 8 0 1 0;
#X connect 8 1 7 0;
#X connect 11 0 12 0;
#X connect 12 0 13 0;
#X connect 14 0 11 1;
#X connect 15 0 8 0;
#X restore 282 92 pd insample1;
#X connect 0 0 13 0;
#X connect 1 0 4 0;
#X connect 3 0 0 0;
#X connect 4 0 3 0;
#X connect 5 0 4 1;
#X connect 5 0 10 1;
#X connect 6 0 5 1;
#X connect 7 0 2 0;
#X connect 8 0 9 0;
#X connect 9 0 10 0;
#X connect 10 0 1 0;
#X connect 11 0 9 0;
#X connect 11 1 5 0;
#X connect 11 2 6 0;
#X connect 12 0 9 0;
#X connect 12 1 5 0;
#X connect 12 1 1 1;
#X connect 13 0 7 0;
#X connect 15 0 22 0;
#X connect 16 0 15 0;
#X connect 18 0 19 0;
#X connect 18 0 22 0;
#X connect 19 0 17 0;
#X connect 20 0 12 0;
#X connect 21 0 11 0;
#X restore 368 365 pd choir1;
#X obj 464 78 loadbang;
#X obj 41 219 inlet;
#X obj 542 252 s read-sound1;
#X msg 587 211 silent_c.wav;
#X obj 195 512 outlet~;
#X obj 97 158 inlet;
#X msg 539 173 jazz2.wav;
#X obj 362 234 r speech-sound;
#N canvas 749 336 619 425 justsay 0;
#N canvas 256 174 1030 515 freq 0;
#X obj 218 169 t f f;
#X obj 232 202 *;
#X obj 29 132 t b b;
#X obj 90 107 metro 100;
#X obj 73 374 pack;
#X obj 72 463 outlet;
#X floatatom 89 82 0 0 0 0 - - -;
#X floatatom 23 339 0 0 0 0 - - -;
#X floatatom 124 336 0 0 0 0 - - -;
#X obj 88 34 loadbang;
#X msg 89 58 1;
#X obj 217 145 random 35;
#N canvas 0 50 450 250 (subpatch) 0;
#X array scaletable 6 float 3;
#A 0 0 3 5 6 7 10;
#X coords 0 12 6 0 200 140 1 0 0;
#X restore 366 105 graph;
#X obj 17 188 random 10;
#X obj 25 315 mtof;
#X obj 14 217 tabread scaletable, f 19;
#X text 72 281 root note;
#X msg 381 293 \; scalesize 5 \; scaletable resize 5 \; scaletable
0 0 2 5 7 9;
#X obj 98 162 r scalesize;
#X obj 237 257 + 1;
#X obj 72 407 line 0 30;
#X obj 72 435 pack 0 30;
#X text 573 320 pentatonic;
#X text 528 394 blues;
#X msg 314 383 \; scalesize 6 \; scaletable resize 6 \; scaletable
0 0 3 5 6 7 10;
#X floatatom 80 248 0 0 0 0 - - -;
#X obj 331 9 r beatsperbar;
#X obj 153 -2 r counter;
#X obj 225 44 ../euclid/euclid;
#X floatatom 236 -29 5 0 0 0 - - -, f 5;
#X floatatom 281 -28 5 0 0 0 - - -, f 5;
#X obj 361 -137 tabread hitsperbar;
#X obj 356 -114 int;
#X obj 541 -118 int;
#X obj 542 -138 tabread offsets;
#X obj 312 -223 r clock;
#X floatatom 433 -175 5 0 0 0 - - -, f 5;
#X msg 434 -222 bang;
#X obj 434 -198 0;
#N canvas 0 50 450 250 (subpatch) 0;
#X array melodytable 8 float 3;
#A 0 4 3 3 1 4 2 1 3;
#X coords 0 5 8 0 200 140 1 0 0;
#X restore 639 125 graph;
#X floatatom 232 426 0 0 0 0 - - -;
#X msg 193 313 bang;
#X obj 232 401 + 1;
#X obj 193 338 float;
#X obj 261 371 mod 5;
#X obj 227 468 tabread melodytable;
#X obj 18 281 + 41;
#X msg 641 381 \; scalesize 7 \; scaletable resize 7 \; scaletable
0 0 2 3 5 7 9 11;
#X obj 266 331 r melodysize;
#X msg 736 38 \; melodysize \$1 \; melodytable resize \$1 \;;
#X floatatom 734 6 5 0 0 0 - - -, f 5;
#X text 896 405 aeolian;
#X obj 507 -39 until;
#X obj 507 -11 f;
#X obj 538 -9 + 1;
#X obj 582 -9 sel 0;
#X obj 582 -33 mod 10;
#X msg 507 -67 6;
#X obj 509 12 t b f;
#X obj 508 60 tabwrite melodytable;
#X floatatom 647 45 5 0 0 0 - - -, f 5;
#X obj 508 34 random 6, f 16;
#X obj 598 -87 r randomize_euclid;
#X connect 0 0 1 0;
#X connect 0 1 1 1;
#X connect 1 0 19 0;
#X connect 2 0 13 0;
#X connect 2 0 41 0;
#X connect 2 1 11 0;
#X connect 4 0 20 0;
#X connect 6 0 3 0;
#X connect 7 0 4 0;
#X connect 8 0 4 1;
#X connect 9 0 10 0;
#X connect 9 0 17 0;
#X connect 10 0 6 0;
#X connect 11 0 0 0;
#X connect 14 0 7 0;
#X connect 15 0 46 0;
#X connect 18 0 13 1;
#X connect 19 0 3 1;
#X connect 20 0 21 0;
#X connect 21 0 5 0;
#X connect 25 0 46 1;
#X connect 26 0 28 3;
#X connect 27 0 28 0;
#X connect 28 0 2 0;
#X connect 29 0 28 1;
#X connect 30 0 28 2;
#X connect 31 0 32 0;
#X connect 32 0 29 0;
#X connect 33 0 30 0;
#X connect 34 0 33 0;
#X connect 35 0 37 0;
#X connect 36 0 34 0;
#X connect 36 0 31 0;
#X connect 37 0 38 0;
#X connect 38 0 36 0;
#X connect 40 0 45 0;
#X connect 41 0 43 0;
#X connect 42 0 40 0;
#X connect 42 0 44 0;
#X connect 43 0 42 0;
#X connect 44 0 43 1;
#X connect 45 0 15 0;
#X connect 46 0 14 0;
#X connect 48 0 44 1;
#X connect 50 0 49 0;
#X connect 52 0 53 0;
#X connect 53 0 54 0;
#X connect 53 0 58 0;
#X connect 54 0 56 0;
#X connect 55 0 52 1;
#X connect 56 0 53 1;
#X connect 56 0 55 0;
#X connect 57 0 52 0;
#X connect 58 0 61 0;
#X connect 58 1 59 1;
#X connect 61 0 59 0;
#X connect 61 0 60 0;
#X connect 62 0 57 0;
#X restore 38 94 pd freq;
#X obj 33 296 outlet~;
#N canvas 86 86 924 558 pulse 0;
#X obj 308 191 line~;
#X obj 36 234 cos~;
#X obj 308 168 pack 0 50;
#X floatatom 308 122 0 0 0 0 - - -;
#X obj 36 133 -~ 0.5;
#X obj 36 188 *~;
#X obj 308 145 / 10;
#X obj 36 211 clip~ -0.5 0.5;
#X text 308 100 bandwidth;
#X obj 308 214 +~ 1;
#X obj 36 257 +~ 1;
#X obj 187 269 cos~;
#X obj 37 325 *~;
#X floatatom 209 124 4 0 0 0 - - -, f 4;
#X obj 209 144 / 10;
#X obj 187 243 *~;
#X obj 209 190 line~;
#X obj 209 167 pack 0 50;
#X floatatom 36 88 4 0 0 0 - - -, f 4;
#X obj 36 109 phasor~ 100;
#X text 184 76 tenths of;
#X text 183 96 fundamental);
#X text 100 271 window;
#X text 222 247 magnified phase;
#X text 264 287 desired center frequency;
#X text 236 270 <--this cosine goes at the;
#X text 265 306 but its phase is reset each;
#X text 263 325 fundamental period.;
#X obj 36 358 hip~;
#X obj 36 280 *~ 0.5;
#X text 86 242 raised;
#X text 94 257 cosine;
#X obj 58 25 inlet;
#X obj 43 484 outlet~;
#X obj 324 26 loadbang;
#X msg 326 68 100;
#X connect 0 0 9 0;
#X connect 1 0 10 0;
#X connect 2 0 0 0;
#X connect 3 0 6 0;
#X connect 4 0 5 0;
#X connect 4 0 15 0;
#X connect 5 0 7 0;
#X connect 6 0 2 0;
#X connect 7 0 1 0;
#X connect 9 0 5 1;
#X connect 10 0 29 0;
#X connect 11 0 12 1;
#X connect 12 0 28 0;
#X connect 13 0 14 0;
#X connect 14 0 17 0;
#X connect 15 0 11 0;
#X connect 16 0 15 1;
#X connect 17 0 16 0;
#X connect 18 0 19 0;
#X connect 19 0 4 0;
#X connect 28 0 33 0;
#X connect 29 0 12 0;
#X connect 32 0 18 0;
#X connect 34 0 35 0;
#X connect 35 0 3 0;
#X restore 31 205 pd pulse;
#X floatatom 209 233 0 0 0 0 - - -;
#X obj 129 256 *~ 0;
#X obj 124 134 noise~;
#X obj 125 163 hip~;
#X floatatom 257 161 5 0 0 0 - - -, f 5;
#X obj 123 191 hip~;
#X msg 223 126 10000;
#X text 281 197 add some noise :-);
#X obj 229 56 loadbang;
#X msg 208 203 0.1;
#X connect 0 0 2 0;
#X connect 2 0 1 0;
#X connect 3 0 4 1;
#X connect 4 0 1 0;
#X connect 5 0 6 0;
#X connect 6 0 8 0;
#X connect 7 0 6 1;
#X connect 7 0 8 1;
#X connect 8 0 4 0;
#X connect 9 0 6 1;
#X connect 9 0 8 1;
#X connect 9 0 7 0;
#X connect 11 0 9 0;
#X connect 11 0 12 0;
#X connect 12 0 3 0;
#X restore 195 369 pd justsay;
#X obj 494 336 inlet;
#X obj 494 381 == 1;
#X obj 526 382 == 0;
#X obj 195 398 *~ 0;
#X obj 368 435 *~ 1;
#X msg 341 164 obama_cut.wav;
#X msg 339 202 adolf_cut.wav;
#X obj 315 276 s player-donald-msec;
#X obj 97 190 vocsim;
#X obj 299 107 r speed-soundfile;
#X connect 0 0 8 0;
#X connect 1 0 0 1;
#X connect 1 1 20 0;
#X connect 2 0 1 2;
#X connect 3 0 17 0;
#X connect 4 0 10 0;
#X connect 4 0 18 0;
#X connect 4 0 19 0;
#X connect 5 0 1 0;
#X connect 7 0 6 0;
#X connect 9 0 21 0;
#X connect 10 0 6 0;
#X connect 10 0 21 1;
#X connect 11 0 1 2;
#X connect 12 0 16 0;
#X connect 13 0 14 0;
#X connect 13 0 15 0;
#X connect 14 0 16 1;
#X connect 15 0 17 1;
#X connect 16 0 0 0;
#X connect 17 0 0 0;
#X connect 18 0 1 2;
#X connect 19 0 1 2;
#X connect 22 0 1 1;
#X restore 283 313 pd donald;
#N canvas 277 50 839 371 hillary 0;
#N canvas 877 259 795 716 fft-analysis 0;
#X obj 94 511 *~;
#X obj 55 511 *~;
#X obj 413 356 *~;
#X obj 372 356 *~;
#X obj 372 379 +~;
#X obj 54 183 *~;
#X obj 54 158 inlet~;
#X obj 54 206 rfft~;
#X obj 54 560 *~;
#X obj 141 245 *~;
#X obj 372 333 rfft~;
#X obj 54 535 rifft~;
#X obj 54 583 outlet~;
#X obj 107 245 *~;
#X obj 107 268 +~;
#X text 458 408 modulus;
#X obj 107 420 *~;
#X obj 600 13 block~ 1024 4;
#X obj 107 398 clip~;
#X obj 599 53 loadbang;
#X obj 148 346 r squelch;
#X obj 147 369 expr 0.01*$f1*$f1;
#X obj 107 294 +~ 1e-20;
#X obj 108 480 *~ 0.00065;
#X obj 373 307 *~;
#X obj 373 282 inlet~;
#X obj 107 321 q8_rsqrt~;
#X obj 372 402 q8_sqrt~;
#X text 458 425 of control;
#X text 456 442 amplitude;
#X text 196 248 reciprocal;
#X text 199 267 modulus of;
#X text 195 287 filter input;
#X text 196 306 amplitude;
#X msg 599 76 \; pd dsp 1 \; window-size 1024 \; squelch 30 \; squelch-set
set 30;
#X text 115 159 filter input;
#X text 438 282 control source;
#X text 434 332 Fourier transform;
#X text 28 17 Internal workings of the timbre stamping algorithm. First
the "filter input" is treated as in the compressor patch \, multiplying
each channel amplitude by one over its modulus (but limited by the
"squelch" parameter.) It is then multiplied by the modulus of the channel
amplitude for the control source (which is Fourier analyzed in parallel
with the filter input.);
#X text 145 422 multiply the two amplitude;
#X text 143 439 factors (for compression;
#X text 145 455 and to apply new timbre);
#X obj 406 308 tabreceive~ \$0-hann1;
#X obj 87 560 tabreceive~ \$0-hann1;
#X obj 87 184 tabreceive~ \$0-hann1;
#X connect 0 0 11 1;
#X connect 1 0 11 0;
#X connect 2 0 4 1;
#X connect 3 0 4 0;
#X connect 4 0 27 0;
#X connect 5 0 7 0;
#X connect 6 0 5 0;
#X connect 7 0 13 0;
#X connect 7 0 13 1;
#X connect 7 0 1 0;
#X connect 7 1 9 0;
#X connect 7 1 9 1;
#X connect 7 1 0 0;
#X connect 8 0 12 0;
#X connect 9 0 14 1;
#X connect 10 0 3 0;
#X connect 10 0 3 1;
#X connect 10 1 2 0;
#X connect 10 1 2 1;
#X connect 11 0 8 0;
#X connect 13 0 14 0;
#X connect 14 0 22 0;
#X connect 16 0 23 0;
#X connect 18 0 16 0;
#X connect 19 0 34 0;
#X connect 20 0 21 0;
#X connect 21 0 18 2;
#X connect 22 0 26 0;
#X connect 23 0 0 1;
#X connect 23 0 1 1;
#X connect 24 0 10 0;
#X connect 25 0 24 0;
#X connect 26 0 18 0;
#X connect 27 0 16 1;
#X connect 42 0 24 1;
#X connect 43 0 8 1;
#X connect 44 0 5 1;
#X restore 100 210 pd fft-analysis;
#X msg 328 120 debate_cut.wav;
#N canvas 190 50 661 593 choir2 0;
#X obj 90 463 line~;
#X obj 90 369 f;
#X obj 92 547 outlet~;
#X msg 90 416 0 \, \$1 \$2;
#X obj 90 397 pack 0 0;
#X obj 191 364 /;
#X obj 249 322 * 0.001;
#X obj 90 510 hip~ 5;
#X obj 40 240 loadbang;
#X msg 90 322 1;
#X obj 90 344 metro 1000;
#X obj 191 317 t b b f;
#X obj 113 287 t b f;
#X text 21 28 test signal: looped sample playback;
#X obj 40 146 hip~ 5;
#X obj 25 124 adc~ 1;
#X obj 89 85 inlet;
#X obj 183 121 samplerate~;
#X obj 74 181 tabwrite~ \$0-sample2;
#X obj 91 486 tabread4~ \$0-sample2;
#X obj 113 240 r \$0-samplength2;
#X obj 191 270 r \$0-insamprate2;
#X obj 272 181 s insamprate2;
#N canvas 337 77 722 350 insample2 0;
#N canvas 0 50 450 300 (subpatch) 0;
#X array \$0-sample2 4e+06 float 0;
#X coords 0 1 4e+06 -1 400 150 1;
#X restore 259 24 graph;
#X obj 19 74 unpack s f;
#X obj 19 184 soundfiler;
#X obj 19 100 t s b;
#X obj 19 135 pack s s;
#X msg 19 160 read -resize \$1 \$2;
#X obj 74 46 44100;
#X obj 19 47 t a b;
#X obj 19 247 /;
#X obj 19 271 * 1000;
#X obj 19 23 r read-sound2;
#X obj 75 99 symbol \$0-sample2;
#X obj 116 74 s \$0-insamprate2;
#X obj 29 208 s \$0-samplength2;
#X obj 19 294 s \$0-samp-msec2;
#X obj 57 247 r \$0-insamprate2;
#X connect 1 0 3 0;
#X connect 1 1 12 0;
#X connect 2 0 8 0;
#X connect 2 0 13 0;
#X connect 3 0 4 0;
#X connect 3 1 11 0;
#X connect 4 0 5 0;
#X connect 5 0 2 0;
#X connect 6 0 12 0;
#X connect 7 0 1 0;
#X connect 7 1 6 0;
#X connect 8 0 9 0;
#X connect 9 0 14 0;
#X connect 10 0 7 0;
#X connect 11 0 4 1;
#X connect 15 0 8 1;
#X restore 364 83 pd insample2;
#X floatatom 493 86 15 0 0 0 - #0-samp-msec2 -, f 15;
#X connect 0 0 19 0;
#X connect 1 0 4 0;
#X connect 3 0 0 0;
#X connect 4 0 3 0;
#X connect 5 0 4 1;
#X connect 5 0 10 1;
#X connect 6 0 5 1;
#X connect 7 0 2 0;
#X connect 8 0 9 0;
#X connect 9 0 10 0;
#X connect 10 0 1 0;
#X connect 11 0 9 0;
#X connect 11 1 5 0;
#X connect 11 2 6 0;
#X connect 12 0 9 0;
#X connect 12 1 5 0;
#X connect 12 1 1 1;
#X connect 14 0 18 0;
#X connect 15 0 14 0;
#X connect 16 0 17 0;
#X connect 16 0 18 0;
#X connect 17 0 22 0;
#X connect 19 0 7 0;
#X connect 20 0 12 0;
#X connect 21 0 11 0;
#X restore 108 106 pd choir2;
#X obj 100 270 outlet~;
#X obj 369 43 loadbang;
#X obj 240 137 inlet;
#X obj 519 153 s read-sound2;
#X msg 500 118 silent_c_solo.wav;
#X msg 510 76 jazz2.wav;
#X msg 358 192 foenig1.wav;
#X obj 341 147 r speech-sound;
#X obj 34 162 noise~;
#X obj 242 182 vocsim;
#X connect 0 0 3 0;
#X connect 1 0 12 1;
#X connect 2 0 0 0;
#X connect 4 0 1 0;
#X connect 4 0 8 0;
#X connect 5 0 12 0;
#X connect 7 0 6 0;
#X connect 8 0 6 0;
#X connect 9 0 12 1;
#X connect 10 0 12 1;
#X connect 12 0 0 1;
#X restore 530 312 pd hillary;
#X floatatom 530 292 7 0 0 0 - hillarypos -, f 7;
#N canvas 746 352 677 409 playcontrol 0;
#X obj 131 79 inlet;
#X obj 218 68 inlet;
#X obj 426 63 inlet;
#X obj 496 65 inlet;
#X obj 433 155 metro 100;
#X obj 495 200 + 1;
#X obj 430 202 float;
#X obj 503 243 s hillarypos;
#X obj 164 185 metro 100;
#X obj 226 218 + 1;
#X obj 168 216 float;
#X obj 230 253 s donaldpos;
#X msg 335 134 bang;
#X obj 341 70 loadbang;
#X msg 377 168 226;
#X msg 258 173 344;
#X obj 182 116 r donaldpos_set;
#X obj 525 108 r hillarypos_set;
#X connect 0 0 8 0;
#X connect 1 0 8 1;
#X connect 2 0 4 0;
#X connect 3 0 4 1;
#X connect 4 0 6 0;
#X connect 5 0 6 1;
#X connect 5 0 7 0;
#X connect 6 0 5 0;
#X connect 8 0 10 0;
#X connect 9 0 10 1;
#X connect 9 0 11 0;
#X connect 10 0 9 0;
#X connect 12 0 14 0;
#X connect 12 0 15 0;
#X connect 13 0 12 0;
#X connect 14 0 6 0;
#X connect 15 0 10 0;
#X connect 16 0 10 0;
#X connect 17 0 6 0;
#X restore 361 163 pd playcontrol;
#X obj 361 137 tgl 15 0 play-on play-on-set empty 17 7 0 10 -262144
-1 -1 0 1;
#X obj 433 139 tgl 15 0 empty empty empty 17 7 0 10 -262144 -1 -1 1
1;
#N canvas 0 226 1280 677 record 0;
#X msg 44 169 start;
#X msg 377 237 stop;
#X obj 277 78 inlet;
#X obj 300 112 delay 10;
#X obj 141 216 catch~ mixL;
#X obj 256 217 catch~ mixR;
#X obj 153 273 writesf~ 2;
#X msg 230 158 open out.wav;
#X obj 377 197 inlet;
#X text 20 10 open and start recording to out.wav (overrides old one)
;
#X connect 0 0 6 0;
#X connect 1 0 6 0;
#X connect 2 0 7 0;
#X connect 2 0 3 0;
#X connect 3 0 0 0;
#X connect 4 0 6 0;
#X connect 5 0 6 1;
#X connect 7 0 6 0;
#X connect 8 0 1 0;
#X restore 1038 549 pd record;
#N canvas 193 339 1278 454 clock 0;
#X obj 366 207 metro 100;
#X obj 354 173 tgl 15 0 empty empty empty 17 7 0 10 -262144 -1 -1 1
1;
#X obj 414 306 f;
#X obj 447 308 + 1;
#X obj 406 -69 loadbang;
#X floatatom 406 9 5 0 0 0 - - -, f 5;
#X floatatom 407 56 5 0 0 0 - - -, f 5;
#X obj 406 31 expr $f1/60;
#X text 461 58 hz;
#X text 453 6 bpm;
#X floatatom 408 104 5 0 0 0 - - -, f 5;
#X obj 407 80 expr 1000/$f1;
#X text 456 103 T[ms] 4ths;
#X floatatom 407 160 5 0 0 0 - - -, f 5;
#X text 453 158 T[ms] 16ths;
#X obj 406 130 expr $f1*0.25;
#X obj 309 274 s clock;
#X obj 415 333 s counter;
#X msg 406 -29 100;
#X obj 253 -34 inlet;
#X obj 294 113 inlet;
#X obj 609 30 outlet;
#X obj 516 262 bng 15 250 50 0 empty empty empty 17 7 0 10 -262144
-1 -1;
#X floatatom 675 288 5 0 0 1 tempo - -, f 5;
#X obj 525 183 tgl 15 0 empty empty empty 17 7 0 10 -262144 -1 -1 1
1;
#X msg 525 203 connect \$1;
#X msg 733 140 tempo \$1;
#X floatatom 733 121 5 0 0 2 tempo - -, f 5;
#X obj 516 232 abl_link~ 4 0 16 134;
#X connect 0 0 16 0;
#X connect 0 0 2 0;
#X connect 1 0 0 0;
#X connect 1 0 24 0;
#X connect 2 0 3 0;
#X connect 2 0 17 0;
#X connect 3 0 2 1;
#X connect 4 0 18 0;
#X connect 5 0 7 0;
#X connect 5 0 21 0;
#X connect 6 0 11 0;
#X connect 7 0 6 0;
#X connect 10 0 15 0;
#X connect 11 0 10 0;
#X connect 13 0 0 1;
#X connect 15 0 13 0;
#X connect 18 0 5 0;
#X connect 19 0 5 0;
#X connect 19 0 27 0;
#X connect 20 0 1 0;
#X connect 22 0 2 0;
#X connect 24 0 25 0;
#X connect 25 0 28 0;
#X connect 26 0 28 0;
#X connect 27 0 26 0;
#X connect 28 0 22 0;
#X connect 28 3 23 0;
#X restore 56 107 pd clock;
#X obj 60 51 hsl 128 15 30 300 0 0 empty bpm empty -2 -8 0 10 -262144
-1 -1 0 1;
#X floatatom 56 80 5 0 0 0 - bpm-set -, f 5;
#X text 16 79 bpm;
#X obj 774 272 hsl 128 15 1 500 0 0 empty squelch-set empty -2 -8 0
10 -262144 -1 -1 11838 1;
#X obj 1038 532 bng 15 250 50 0 empty empty empty 17 7 0 10 -262144
-1 -1;
#X obj 789 101 s read-sound1;
#X obj 787 135 s read-sound2;
#X msg 658 61 silent_c.wav;
#X msg 883 60 jazz2.wav;
#X msg 777 60 autumn.wav;
#X msg 12 261 \; don_euc_on 0 \; hill_euc_on 0 \;;
#X text 54 156 euclidians on/off;
#N canvas 674 358 989 509 euclidiangates 0;
#X obj 274 281 *~;
#X obj 417 285 *~;
#X obj 433 189 tgl 15 0 empty hill_euc_on empty 17 7 0 10 -262144 -1
-1 0 1;
#X obj 433 215 ../euclid/euclidtrigger~ 1;
#X obj 289 250 ../euclid/euclidtrigger~ 0;
#X obj 47 272 *~;
#X obj 62 213 tgl 15 0 empty don_euc_on empty 17 7 0 10 -262144 -1
-1 0 1;
#X obj 62 246 ../euclid/euclidtrigger~ 3;
#X obj 333 379 *~;
#X obj 395 339 tgl 15 0 empty don_euc_on empty 17 7 0 10 -262144 -1
-1 0 1;
#X obj 395 362 ../euclid/euclidtrigger~ 4;
#X obj 598 288 *~;
#X obj 613 188 tgl 15 0 empty hill_euc_on empty 17 7 0 10 -262144 -1
-1 0 1;
#X obj 613 256 ../euclid/euclidtrigger~ 2;
#X obj 47 37 inlet~;
#X obj 98 36 inlet~;
#X obj 333 309 +~;
#X obj 333 342 *~ 0.5;
#X obj 275 453 outlet~;
#X obj 417 457 outlet~;
#X obj 289 209 tgl 15 0 empty don_euc_on empty 17 7 0 10 -262144 -1
-1 0 1;
#X connect 0 0 18 0;
#X connect 1 0 19 0;
#X connect 2 0 3 0;
#X connect 3 0 1 1;
#X connect 4 0 0 1;
#X connect 5 0 18 0;
#X connect 6 0 7 0;
#X connect 7 0 5 1;
#X connect 8 0 18 0;
#X connect 8 0 19 0;
#X connect 9 0 10 0;
#X connect 10 0 8 1;
#X connect 11 0 19 0;
#X connect 12 0 13 0;
#X connect 13 0 11 1;
#X connect 14 0 0 0;
#X connect 14 0 5 0;
#X connect 14 0 16 0;
#X connect 15 0 1 0;
#X connect 15 0 11 0;
#X connect 15 0 16 1;
#X connect 16 0 17 0;
#X connect 17 0 8 0;
#X connect 20 0 4 0;
#X restore 283 343 pd euclidiangates;
#N canvas 462 148 776 599 euclidcontrol 0;
#N canvas 0 50 450 250 (subpatch) 0;
#X array mixer 5 float 3;
#A 0 1.3 1.41429 1.6 1.85715 2.04286;
#X coords 0 2 5 0 200 140 1 0 0;
#X restore 244 33 graph;
#N canvas 0 50 450 250 (subpatch) 0;
#X array hitsperbar 5 float 3;
#A 0 8.11429 7.88571 11.0857 8.11429 12.3429;
#X coords 0 16 5 0 200 140 1 0 0;
#X restore 241 196 graph;
#N canvas 0 50 450 250 (subpatch) 0;
#X array offsets 5 float 3;
#A 0 1.48572 1.82857 2.51428 1.94286 1.94286;
#X coords 0 16 5 0 200 140 1 0 0;
#X restore 244 370 graph;
#X obj 638 51 hsl 128 15 1 64 0 0 empty empty empty -2 -8 0 10 -262144
-1 -1 3000 1;
#X floatatom 640 113 5 0 0 0 - - beatsperbar, f 5;
#X text 627 28 beatsperbar;
#X obj 639 81 int;
#N canvas 405 228 566 349 init 0;
#X floatatom 119 105 5 0 0 0 - - -, f 5;
#X obj 119 58 loadbang;
#X msg 119 82 16;
#X obj 119 129 s beatsperbar;
#X msg 57 92 92;
#X obj 58 122 s bpm;
#X msg 288 97 \; pd dsp 1;
#X connect 0 0 3 0;
#X connect 1 0 2 0;
#X connect 1 0 4 0;
#X connect 1 0 6 0;
#X connect 2 0 0 0;
#X connect 4 0 5 0;
#X restore 651 157 pd init;
#N canvas 0 50 450 250 (subpatch) 0;
#X array attacks 5 float 3;
#A 0 15.893 10.1787 8.03579 5.17861 1.24999;
#X coords 0 25 5 0 200 140 1 0 0;
#X restore 483 374 graph;
#N canvas 0 50 450 250 (subpatch) 0;
#X array decays 5 float 3;
#A 0 228.573 307.144 407.143 514.286 278.573;
#X coords 0 1000 5 0 200 140 1 0 0;
#X restore 28 33 graph;
#X connect 3 0 6 0;
#X connect 6 0 4 0;
#X restore 29 369 pd euclidcontrol;
#N canvas 0 50 868 545 out 0;
#X obj 288 330 dac~;
#X obj 289 276 *~;
#X obj 363 273 *~;
#X floatatom 407 295 0 0 120 0 - - -;
#X text 448 295 level \, dB;
#X obj 398 377 dac~, f 5;
#X obj 230 417 throw~ mixL;
#X obj 329 417 throw~ mixR;
#X obj 302 50 inlet~;
#X obj 420 70 inlet~;
#X obj 607 26 inlet;
#X obj 364 333 rev2~ 33 90 3000 20, f 33;
#X connect 1 0 0 0;
#X connect 1 0 6 0;
#X connect 1 0 11 0;
#X connect 2 0 0 1;
#X connect 2 0 7 0;
#X connect 2 0 11 0;
#X connect 3 0 11 1;
#X connect 8 0 1 0;
#X connect 9 0 2 0;
#X connect 10 0 2 1;
#X connect 10 0 1 1;
#X connect 11 0 5 0;
#X connect 11 0 6 0;
#X connect 11 1 5 1;
#X connect 11 1 7 0;
#X restore 283 390 pd out;
#X text 663 7 load choir/music;
#X text 768 233 crossfade choir<->speech;
#X text 354 24 control speech speed;
#X msg 1116 68 foenig1.wav;
#X obj 1117 94 s speech-sound;
#X msg 1028 479 \; donaldpos_set 0 \; hillarypos_set 0 \;;
#X msg 983 60 bach.wav;
#X msg 141 194 \; don_euc_on 0 \; hill_euc_on 1 \;;
#X msg 11 194 \; don_euc_on 1 \; hill_euc_on 1 \;;
#X obj 419 292 tgl 15 0 empty donald_on empty 17 7 0 10 -262144 -1
-1 0 1;
#X msg 144 259 \; don_euc_on 1 \; hill_euc_on 0 \;;
#X text 444 290 solo;
#X msg 984 92 lig.wav;
#X msg 981 121 wagner.wav;
#X obj 31 444 cnv 15 800 300 empty empty empty 20 12 0 14 -233017 -66577
0;
#X text 34 452 1) Load Files;
#X obj 424 373 r volume;
#X obj 44 710 hsl 128 15 0 10 0 0 volume vol Volume -2 -8 0 10 -262144
-1 -1 6350 1;
#X obj 39 645 tgl 15 0 play-on-set empty Play_soundfile 17 7 0 10 -262144
-1 -1 0 1;
#X obj 43 680 hsl 128 15 -300 300 0 1 speed-soundfile speed-soundfile-set
Soundfile_speed -2 -8 0 10 -262144 -1 -1 6350 1;
#X obj 101 81 r startclock;
#X text 36 535 2) Start Clock;
#X obj 40 566 tgl 15 0 startclock startclock-set Start_Clock 17 7 0
10 -262144 -1 -1 1 1;
#X obj 612 572 loadbang;
#X text 608 552 initial values;
#X floatatom 177 681 7 0 0 0 - speed-soundfile -, f 7;
#N canvas 3 216 553 530 score 1;
#X obj 113 14 r dk_floor;
#X obj 113 39 change;
#X obj 113 63 sel 0 1 2 3 4 5;
#X msg 36 132 \; bpm-set 90;
#X msg 125 130 \; bpm-set 120;
#X msg 216 133 \; bpm-set 150;
#X msg 305 132 \; bpm-set 200;
#X obj 33 202 r dk_jump;
#X obj 141 197 r absposition;
#X msg 140 347 \; speed-soundfile-set \$1;
#X obj 141 219 unpack f f f f, f 31;
#X floatatom 193 327 5 0 0 0 - - -, f 5;
#X floatatom 257 324 5 0 0 0 - - -, f 5;
#X floatatom 270 308 5 0 0 0 - - -, f 5;
#X obj 202 250 change;
#X obj 263 251 change;
#X obj 324 252 change;
#X obj 131 243 change;
#X obj 36 291 bng 15 250 50 0 empty empty empty 17 7 0 10 -262144 -1
-1;
#X obj 53 282 s randomize_euclid;
#X obj 140 320 * 20;
#X connect 0 0 1 0;
#X connect 1 0 2 0;
#X connect 2 0 3 0;
#X connect 2 1 4 0;
#X connect 2 2 5 0;
#X connect 2 3 6 0;
#X connect 7 0 19 0;
#X connect 7 0 18 0;
#X connect 8 0 10 0;
#X connect 10 0 17 0;
#X connect 10 1 14 0;
#X connect 10 2 15 0;
#X connect 10 3 16 0;
#X connect 15 0 13 0;
#X connect 15 0 20 0;
#X connect 20 0 9 0;
#X connect 20 0 11 0;
#X restore 515 97 pd score;
#X msg 612 595 \; vol 5 \; donald_on 1 \; hillary_on 1 \; don_euc_on
0 \; hill_euc_on 0 \; donaldpos_set 3000 \; hillarypos_set 393 \; speed-soundfile-set
0 \; beatsperbar 10 \;;
#X msg 38 479 \; speech-sound /Users/rodrigodiaz/Development/DonkeyKong/patches/externals/timbreID-examples-0.6.4/sound/deutsch.wav
\; read-sound1 /Users/rodrigodiaz/Development/DonkeyKong/patches/externals/timbreID-examples-0.6.4/sound/cartoons.wav
\; read-sound1 /Users/rodrigodiaz/Development/DonkeyKong/patches/externals/timbreID-examples-0.6.4/sound/cartoons.wav
\;, f 127;
#X connect 1 0 3 0;
#X connect 3 0 23 0;
#X connect 4 0 23 1;
#X connect 5 0 4 0;
#X connect 7 0 6 0;
#X connect 8 0 6 2;
#X connect 12 0 10 0;
#X connect 14 0 0 0;
#X connect 15 0 9 0;
#X connect 18 0 16 0;
#X connect 18 0 17 0;
#X connect 19 0 16 0;
#X connect 19 0 17 0;
#X connect 20 0 16 0;
#X connect 20 0 17 0;
#X connect 23 0 25 0;
#X connect 23 1 25 1;
#X connect 29 0 30 0;
#X connect 32 0 16 0;
#X connect 32 0 17 0;
#X connect 35 0 3 2;
#X connect 38 0 16 0;
#X connect 38 0 17 0;
#X connect 39 0 16 0;
#X connect 39 0 17 0;
#X connect 42 0 25 2;
#X connect 46 0 10 1;
#X connect 49 0 53 0;
